<svg width="20" height="20" viewBox="0 0 20 20" fill="none" xmlns="http://www.w3.org/2000/svg">
<path d="M14.1667 18.3334H5.83333C4.91286 18.3334 4.16667 17.5872 4.16667 16.6667V5.83341H2.5V4.16675H5.83333V3.33341C5.83333 2.41294 6.57952 1.66675 7.5 1.66675H12.5C13.4205 1.66675 14.1667 2.41294 14.1667 3.33341V4.16675H17.5V5.83341H15.8333V16.6667C15.8333 17.5872 15.0872 18.3334 14.1667 18.3334ZM5.83333 5.83341V16.6667H14.1667V5.83341H5.83333ZM7.5 3.33341V4.16675H12.5V3.33341H7.5ZM12.5 15.0001H10.8333V7.50008H12.5V15.0001ZM9.16667 15.0001H7.5V7.50008H9.16667V15.0001Z" fill="white"/>
</svg>
